# xmcd
#
# Track frame offsets:
#	150
#	16055
#	31461
#	46935
#	61850
#	73062
#	95391
#	103349
#	113736
#	123601
#	135179
#	151180
#	164658
#	178166
#	190954
#
# Disc length: 2741 seconds
#
# Revision: 0
# Processed by: cddbd v1.5.2PL0 Copyright (c) Steve Scherf et al.
# Submitted via: dBpowerAMP V4.0
#
DISCID=c90ab30f
DTITLE=Glen Miller - The best collection Vol2
DYEAR=1900
DGENRE=Blues
TTITLE0=Tuxedo junction
TTITLE1=Song of the volga boatman
TTITLE2=Moonlight serenade
TTITLE3=Pennsylvania
TTITLE4=Sun valley jump
TTITLE5=Anvil Chorus
TTITLE6=Under a blanket
TTITLE7=Sleepy lagoon
TTITLE8=Don't sit under the apple tree
TTITLE9=The jump'jive
TTITLE10=St. Louis Blues
TTITLE11=Three little fishes
TTITLE12=Moonlight cocktail
TTITLE13=Everybody love my baby
TTITLE14=Perfidia
EXTD=
EXTT0=
EXTT1=
EXTT2=
EXTT3=
EXTT4=
EXTT5=
EXTT6=
EXTT7=
EXTT8=
EXTT9=
EXTT10=
EXTT11=
EXTT12=
EXTT13=
EXTT14=
PLAYORDER=
